<svg width="512" height="512" viewBox="0 0 512 512" fill="none" xmlns="http://www.w3.org/2000/svg">
  <rect width="512" height="512" rx="128" fill="#12212B"/>
  <rect x="78" y="78" width="356" height="356" rx="96" fill="#1F7A43"/>
  <rect x="78" y="126" width="356" height="34" fill="#2E9856"/>
  <rect x="78" y="194" width="356" height="34" fill="#2E9856"/>
  <rect x="78" y="262" width="356" height="34" fill="#2E9856"/>
  <rect x="78" y="330" width="356" height="34" fill="#2E9856"/>
  <circle cx="256" cy="256" r="48" stroke="#EAF7EE" stroke-width="10"/>
  <path d="M78 176H144V336H78" stroke="#EAF7EE" stroke-width="10"/>
  <path d="M434 176H368V336H434" stroke="#EAF7EE" stroke-width="10"/>
  <circle cx="346" cy="346" r="60" fill="#FFF8EC" stroke="#12212B" stroke-width="10"/>
  <circle cx="346" cy="346" r="18" fill="#12212B"/>
  <rect x="336" y="308" width="20" height="8" rx="4" fill="#12212B"/>
  <rect x="336" y="376" width="20" height="8" rx="4" fill="#12212B"/>
  <rect x="308" y="336" width="8" height="20" rx="4" fill="#12212B"/>
  <rect x="376" y="336" width="8" height="20" rx="4" fill="#12212B"/>
</svg>
